<svg width="57" height="31" viewBox="0 0 57 31" fill="none" xmlns="http://www.w3.org/2000/svg">
<g id="Logo">
<g id="Robbie Lens">
<path d="M7.6998 15.1624C7.59688 15.1624 7.52612 15.1174 7.48752 15.0273L4.78584 9.2573C4.77297 9.2187 4.74724 9.1994 4.70865 9.1994H1.92977C1.87831 9.1994 1.85258 9.22513 1.85258 9.2766V14.9694C1.85258 15.0981 1.78826 15.1624 1.65961 15.1624H0.192978C0.0643259 15.1624 0 15.0981 0 14.9694V1.84697C0 1.71831 0.0643259 1.65399 0.192978 1.65399H5.38407C6.15598 1.65399 6.8314 1.8148 7.41033 2.13643C8.00213 2.45806 8.45884 2.90834 8.78047 3.48727C9.1021 4.06621 9.26291 4.73519 9.26291 5.49424C9.26291 6.3948 9.02491 7.16028 8.5489 7.79067C8.08575 8.4082 7.43606 8.82631 6.59983 9.04502C6.54837 9.07075 6.5355 9.10292 6.56123 9.14151L9.3594 14.9308C9.37227 14.9566 9.3787 14.9887 9.3787 15.0273C9.3787 15.1174 9.32724 15.1624 9.22432 15.1624H7.6998ZM1.92977 3.2557C1.87831 3.2557 1.85258 3.28143 1.85258 3.33289V7.65558C1.85258 7.70705 1.87831 7.73278 1.92977 7.73278H5.1525C5.83435 7.73278 6.38112 7.53337 6.7928 7.13455C7.20449 6.72286 7.41033 6.18252 7.41033 5.51354C7.41033 4.83168 7.20449 4.28491 6.7928 3.87323C6.38112 3.46154 5.83435 3.2557 5.1525 3.2557H1.92977Z" fill="black"/>
<path d="M15.5419 15.3168C14.5899 15.3168 13.7601 15.0788 13.0525 14.6028C12.3449 14.1139 11.8496 13.4385 11.5666 12.5765C11.335 11.8818 11.2192 11.097 11.2192 10.2222C11.2192 9.30876 11.3286 8.53685 11.5473 7.90646C11.8303 7.05735 12.3256 6.3948 13.0332 5.91879C13.7408 5.42991 14.5835 5.18547 15.5612 5.18547C16.4875 5.18547 17.2916 5.42991 17.9734 5.91879C18.6681 6.3948 19.1635 7.05092 19.4594 7.88716C19.6909 8.54328 19.8067 9.31519 19.8067 10.2029C19.8067 11.1034 19.6909 11.8947 19.4594 12.5765C19.1763 13.4385 18.6874 14.1139 17.9927 14.6028C17.298 15.0788 16.4811 15.3168 15.5419 15.3168ZM15.5419 13.7151C16.0565 13.7151 16.5068 13.5736 16.8928 13.2905C17.2787 12.9946 17.5553 12.5829 17.7226 12.0555C17.8641 11.5666 17.9348 10.9619 17.9348 10.2415C17.9348 9.52103 17.8705 8.9228 17.7419 8.44679C17.5746 7.91932 17.298 7.51407 16.9121 7.23103C16.5261 6.93514 16.0565 6.78719 15.5033 6.78719C14.9758 6.78719 14.5191 6.93514 14.1332 7.23103C13.7472 7.51407 13.4706 7.91932 13.3034 8.44679C13.1619 8.89707 13.0911 9.4953 13.0911 10.2415C13.0911 10.9877 13.1619 11.5923 13.3034 12.0555C13.4578 12.5829 13.7279 12.9946 14.1139 13.2905C14.5127 13.5736 14.9887 13.7151 15.5419 13.7151Z" fill="black"/>
<path d="M30.1636 7.88716C30.3694 8.54328 30.4723 9.32162 30.4723 10.2222C30.4723 11.1871 30.3501 12.0104 30.1057 12.6923C29.8226 13.5285 29.3724 14.1782 28.7548 14.6414C28.1502 15.0916 27.3847 15.3168 26.4584 15.3168C26.0081 15.3168 25.59 15.2267 25.204 15.0466C24.8181 14.8665 24.4836 14.6156 24.2006 14.294C24.1748 14.2683 24.1491 14.2618 24.1234 14.2747C24.1105 14.2876 24.1041 14.3069 24.1041 14.3326V14.9694C24.1041 15.0981 24.0398 15.1624 23.9111 15.1624H22.4445C22.3158 15.1624 22.2515 15.0981 22.2515 14.9694V1.84697C22.2515 1.71831 22.3158 1.65399 22.4445 1.65399H23.9111C24.0398 1.65399 24.1041 1.71831 24.1041 1.84697V6.15036C24.1041 6.17609 24.1105 6.19539 24.1234 6.20825C24.1491 6.22112 24.1748 6.21469 24.2006 6.18896C24.4836 5.86733 24.8181 5.62289 25.204 5.45564C25.6029 5.27553 26.021 5.18547 26.4584 5.18547C27.4233 5.18547 28.2145 5.42348 28.832 5.89949C29.4496 6.3755 29.8934 7.03806 30.1636 7.88716ZM28.118 12.6537C28.4396 12.049 28.6005 11.2514 28.6005 10.2608C28.6005 9.20584 28.3946 8.35674 27.9829 7.71348C27.6098 7.09595 27.0373 6.78719 26.2654 6.78719C25.545 6.78719 24.9982 7.11525 24.6251 7.77137C24.2906 8.36317 24.1234 9.18654 24.1234 10.2415C24.1234 11.2964 24.2778 12.1069 24.5865 12.673C24.9725 13.3677 25.5385 13.7151 26.2847 13.7151C27.1338 13.7151 27.7449 13.3613 28.118 12.6537Z" fill="black"/>
<path d="M40.8112 7.88716C41.0171 8.54328 41.12 9.32162 41.12 10.2222C41.12 11.1871 40.9978 12.0104 40.7533 12.6923C40.4703 13.5285 40.02 14.1782 39.4025 14.6414C38.7978 15.0916 38.0324 15.3168 37.1061 15.3168C36.6558 15.3168 36.2377 15.2267 35.8517 15.0466C35.4658 14.8665 35.1313 14.6156 34.8482 14.294C34.8225 14.2683 34.7968 14.2618 34.7711 14.2747C34.7582 14.2876 34.7518 14.3069 34.7518 14.3326V14.9694C34.7518 15.0981 34.6874 15.1624 34.5588 15.1624H33.0922C32.9635 15.1624 32.8992 15.0981 32.8992 14.9694V1.84697C32.8992 1.71831 32.9635 1.65399 33.0922 1.65399H34.5588C34.6874 1.65399 34.7518 1.71831 34.7518 1.84697V6.15036C34.7518 6.17609 34.7582 6.19539 34.7711 6.20825C34.7968 6.22112 34.8225 6.21469 34.8482 6.18896C35.1313 5.86733 35.4658 5.62289 35.8517 5.45564C36.2505 5.27553 36.6687 5.18547 37.1061 5.18547C38.071 5.18547 38.8622 5.42348 39.4797 5.89949C40.0972 6.3755 40.5411 7.03806 40.8112 7.88716ZM38.7657 12.6537C39.0873 12.049 39.2481 11.2514 39.2481 10.2608C39.2481 9.20584 39.0423 8.35674 38.6306 7.71348C38.2575 7.09595 37.685 6.78719 36.9131 6.78719C36.1927 6.78719 35.6459 7.11525 35.2728 7.77137C34.9383 8.36317 34.7711 9.18654 34.7711 10.2415C34.7711 11.2964 34.9254 12.1069 35.2342 12.673C35.6202 13.3677 36.1862 13.7151 36.9324 13.7151C37.7815 13.7151 38.3926 13.3613 38.7657 12.6537Z" fill="black"/>
<path d="M44.6657 3.79604C44.3054 3.79604 44.0095 3.68025 43.778 3.44868C43.5464 3.21711 43.4306 2.92121 43.4306 2.56098C43.4306 2.20076 43.5464 1.90486 43.778 1.67329C44.0095 1.44171 44.3054 1.32593 44.6657 1.32593C45.0259 1.32593 45.3218 1.44171 45.5534 1.67329C45.7849 1.90486 45.9007 2.20076 45.9007 2.56098C45.9007 2.92121 45.7849 3.21711 45.5534 3.44868C45.3218 3.68025 45.0259 3.79604 44.6657 3.79604ZM43.8938 15.1431C43.7651 15.1431 43.7008 15.0788 43.7008 14.9501V5.53283C43.7008 5.40418 43.7651 5.33986 43.8938 5.33986H45.3604C45.489 5.33986 45.5534 5.40418 45.5534 5.53283V14.9501C45.5534 15.0788 45.489 15.1431 45.3604 15.1431H43.8938Z" fill="black"/>
<path d="M56.4157 9.02572C56.4672 9.5532 56.4865 10.145 56.4736 10.8011C56.4736 10.9298 56.4093 10.9941 56.2806 10.9941H50.1247C50.0732 10.9941 50.0475 11.0198 50.0475 11.0713C50.0475 11.5087 50.0861 11.8432 50.1633 12.0748C50.3048 12.5894 50.5878 12.9946 51.0124 13.2905C51.4498 13.5736 51.9965 13.7151 52.6527 13.7151C53.6047 13.7151 54.338 13.3227 54.8526 12.5379C54.9169 12.4093 55.0006 12.39 55.1035 12.48L56.2035 13.2133C56.2935 13.2905 56.3128 13.3741 56.2613 13.4642C55.9011 14.0431 55.3865 14.4998 54.7175 14.8343C54.0614 15.1688 53.3152 15.3361 52.479 15.3361C51.5398 15.3361 50.7486 15.1302 50.1054 14.7186C49.4621 14.3069 48.9797 13.7215 48.658 12.9625C48.3493 12.2034 48.1949 11.2836 48.1949 10.2029C48.1949 9.26373 48.2657 8.54971 48.4072 8.06084C48.6387 7.17314 49.1019 6.47199 49.7966 5.95738C50.4913 5.44278 51.334 5.18547 52.3246 5.18547C53.624 5.18547 54.5953 5.51354 55.2386 6.16966C55.8818 6.81292 56.2742 7.76494 56.4157 9.02572ZM52.3246 6.78719C51.7714 6.78719 51.3147 6.9287 50.9545 7.21174C50.5942 7.4819 50.3498 7.84856 50.2212 8.31171C50.1311 8.59474 50.0732 8.95497 50.0475 9.39238C50.0475 9.44384 50.0732 9.46957 50.1247 9.46957H54.5438C54.5953 9.46957 54.621 9.44384 54.621 9.39238C54.5953 8.96783 54.5567 8.65264 54.5053 8.44679C54.3766 7.94505 54.1193 7.54623 53.7333 7.25033C53.3603 6.94157 52.8907 6.78719 52.3246 6.78719Z" fill="black"/>
<path d="M0.192978 30.3249C0.0643259 30.3249 0 30.2606 0 30.1319V17.0095C0 16.8808 0.0643259 16.8165 0.192978 16.8165H1.65961C1.78826 16.8165 1.85258 16.8808 1.85258 17.0095V28.646C1.85258 28.6975 1.87831 28.7232 1.92977 28.7232H8.58749C8.71614 28.7232 8.78047 28.7875 8.78047 28.9162V30.1319C8.78047 30.2606 8.71614 30.3249 8.58749 30.3249H0.192978Z" fill="black"/>
<path d="M18.7248 24.1882C18.7763 24.7157 18.7956 25.3075 18.7827 25.9636C18.7827 26.0923 18.7184 26.1566 18.5898 26.1566H12.4338C12.3823 26.1566 12.3566 26.1823 12.3566 26.2338C12.3566 26.6712 12.3952 27.0057 12.4724 27.2373C12.6139 27.7519 12.8969 28.1571 13.3215 28.453C13.7589 28.7361 14.3057 28.8776 14.9618 28.8776C15.9138 28.8776 16.6471 28.4852 17.1617 27.7004C17.226 27.5718 17.3097 27.5525 17.4126 27.6425L18.5126 28.3758C18.6026 28.453 18.6219 28.5367 18.5705 28.6267C18.2102 29.2056 17.6956 29.6624 17.0266 29.9968C16.3705 30.3313 15.6243 30.4986 14.7881 30.4986C13.8489 30.4986 13.0577 30.2927 12.4145 29.8811C11.7712 29.4694 11.2888 28.884 10.9671 28.125C10.6584 27.3659 10.504 26.4461 10.504 25.3654C10.504 24.4262 10.5748 23.7122 10.7163 23.2233C10.9478 22.3356 11.411 21.6345 12.1057 21.1199C12.8004 20.6053 13.6431 20.348 14.6337 20.348C15.9331 20.348 16.9044 20.676 17.5477 21.3322C18.1909 21.9754 18.5833 22.9274 18.7248 24.1882ZM14.6337 21.9497C14.0805 21.9497 13.6238 22.0912 13.2636 22.3742C12.9034 22.6444 12.6589 23.0111 12.5303 23.4742C12.4402 23.7572 12.3823 24.1175 12.3566 24.5549C12.3566 24.6063 12.3823 24.6321 12.4338 24.6321H16.853C16.9044 24.6321 16.9301 24.6063 16.9301 24.5549C16.9044 24.1303 16.8658 23.8151 16.8144 23.6093C16.6857 23.1076 16.4284 22.7087 16.0424 22.4128C15.6694 22.1041 15.1998 21.9497 14.6337 21.9497Z" fill="black"/>
<path d="M25.5009 20.3673C26.5558 20.3673 27.3921 20.676 28.0096 21.2936C28.6271 21.8982 28.9359 22.7216 28.9359 23.7637V30.1319C28.9359 30.2606 28.8716 30.3249 28.7429 30.3249H27.2763C27.1476 30.3249 27.0833 30.2606 27.0833 30.1319V24.1303C27.0833 23.4871 26.8968 22.966 26.5237 22.5672C26.1506 22.1684 25.6553 21.969 25.0378 21.969C24.4331 21.969 23.9378 22.1684 23.5518 22.5672C23.1659 22.966 22.9729 23.4806 22.9729 24.111V30.1319C22.9729 30.2606 22.9086 30.3249 22.7799 30.3249H21.3133C21.1846 30.3249 21.1203 30.2606 21.1203 30.1319V20.6953C21.1203 20.5667 21.1846 20.5024 21.3133 20.5024H22.7799C22.9086 20.5024 22.9729 20.5667 22.9729 20.6953V21.3901C22.9729 21.4158 22.9793 21.4351 22.9922 21.448C23.0179 21.4608 23.0372 21.4544 23.0501 21.4287C23.6033 20.7211 24.4202 20.3673 25.5009 20.3673Z" fill="black"/>
<path d="M35.0338 30.4407C34.2619 30.4407 33.5801 30.3249 32.9883 30.0933C32.4093 29.8618 31.9591 29.5466 31.6374 29.1478C31.3158 28.7361 31.155 28.2858 31.155 27.7969V27.5846C31.155 27.456 31.2193 27.3917 31.348 27.3917H32.7374C32.8661 27.3917 32.9304 27.456 32.9304 27.5846V27.6811C32.9304 28.0413 33.1234 28.3565 33.5093 28.6267C33.9081 28.8969 34.4099 29.032 35.0145 29.032C35.5935 29.032 36.063 28.9097 36.4233 28.6653C36.7835 28.408 36.9636 28.0864 36.9636 27.7004C36.9636 27.3273 36.7964 27.0507 36.4619 26.8706C36.1274 26.6776 35.587 26.4782 34.8409 26.2724C34.1075 26.0665 33.49 25.8607 32.9883 25.6549C32.4994 25.4362 32.0813 25.1338 31.7339 24.7479C31.3994 24.349 31.2322 23.8409 31.2322 23.2233C31.2322 22.3614 31.5667 21.6795 32.2357 21.1778C32.9175 20.6632 33.8181 20.4059 34.9373 20.4059C35.6835 20.4059 36.3396 20.5281 36.9057 20.7725C37.4846 21.0041 37.9285 21.3322 38.2373 21.7567C38.546 22.1813 38.7004 22.6573 38.7004 23.1847V23.2426C38.7004 23.3713 38.6361 23.4356 38.5074 23.4356H37.1566C37.0279 23.4356 36.9636 23.3713 36.9636 23.2426V23.1847C36.9636 22.8117 36.7771 22.5029 36.404 22.2585C36.0437 22.0012 35.5484 21.8725 34.918 21.8725C34.352 21.8725 33.8888 21.9819 33.5286 22.2006C33.1813 22.4193 33.0076 22.7152 33.0076 23.0883C33.0076 23.4614 33.1748 23.7444 33.5093 23.9374C33.8567 24.1303 34.4099 24.3362 35.1689 24.5549C35.9151 24.7607 36.5326 24.9666 37.0215 25.1724C37.5232 25.3654 37.9478 25.6613 38.2952 26.0601C38.6425 26.4461 38.8162 26.9542 38.8162 27.5846C38.8162 28.4595 38.4688 29.1542 37.7741 29.6688C37.0923 30.1834 36.1788 30.4407 35.0338 30.4407Z" fill="black"/>
</g>
<path id="Line 9 (Stroke)" fill-rule="evenodd" clip-rule="evenodd" d="M56.3108 30.325L56.3108 3.01261e-08L57 0L57 30.325L56.3108 30.325Z" fill="black"/>
<path id="Line 10 (Stroke)" fill-rule="evenodd" clip-rule="evenodd" d="M50.1079 30.325L50.1079 17.9193L50.7971 17.9193L50.7971 30.325L50.1079 30.325Z" fill="black"/>
<path id="Line 11 (Stroke)" fill-rule="evenodd" clip-rule="evenodd" d="M43.9053 30.325L43.9053 20.6761L44.5945 20.6761L44.5945 30.325L43.9053 30.325Z" fill="black"/>
</g>
</svg>
